<svg xmlns="http://www.w3.org/2000/svg" width="52.425" height="53" viewBox="0 0 52.425 53">
  <g id="noun_Tshirt_18451" transform="translate(-3.171 -2.646)">
    <path id="Path_35" data-name="Path 35" d="M55.4,17.443c-.439-.839-4.375-8.288-6.642-10.556-1.307-1.306-8.093-3.178-12.038-4.181a1.683,1.683,0,0,0-.447-.06,1.718,1.718,0,0,0-1.468.831c-.105.15-1.358,1.805-5.434,1.805-4.029,0-5.184-1.568-5.279-1.709a1.713,1.713,0,0,0-1.483-.865,1.692,1.692,0,0,0-.459.064c-1.014.262-8.99,2.364-11.264,4.288C8.345,9.206,3.907,16.631,3.409,17.47l-.01.017-.01.017a1.7,1.7,0,0,0-.077,1.508,1.716,1.716,0,0,0,1.071.967,26.987,26.987,0,0,1,4.048,1.891,30.539,30.539,0,0,1,4.162,2.692l.037.029.006,0a1.733,1.733,0,0,0,1.329.329L14,24.919l.038-.008a1.743,1.743,0,0,0,.468-.175c.262,4.828.434,10.443.219,15.161-.074,1.661-.311,9.294-.4,12.167-.018.574-.029.931-.03.973A1.723,1.723,0,0,0,15.769,54.8l.032,0h.012a116.4,116.4,0,0,0,14.05.837,96.21,96.21,0,0,0,13.1-.841,1.728,1.728,0,0,0,1.483-1.746l-.025-.807c-.082-2.636-.331-10.655-.408-12.354-.215-4.736-.039-10.4.226-15.266a1.729,1.729,0,0,0,.492.19l.048.011.049.007a1.78,1.78,0,0,0,.263.02,1.706,1.706,0,0,0,1.1-.393,30.347,30.347,0,0,1,4.154-2.685,27.126,27.126,0,0,1,4.045-1.891,1.7,1.7,0,0,0,1.075-.964l.019-.044.016-.045A1.743,1.743,0,0,0,55.4,17.443ZM22.525,4.153a.27.27,0,0,1,.081-.012.285.285,0,0,1,.247.158c.013.023,1.357,2.416,6.515,2.416s6.64-2.462,6.655-2.488a.289.289,0,0,1,.247-.148.241.241,0,0,1,.074.011s.447.114,1.16.3c-1.613,2.8-5.692,3.779-9.185,3.487C24.941,7.6,22.3,6.234,21.513,4.426,22.138,4.253,22.525,4.153,22.525,4.153ZM42.763,53.385a94.774,94.774,0,0,1-12.9.828,113.573,113.573,0,0,1-13.888-.828.289.289,0,0,1-.247-.294c0-.015.008-.25.02-.638,5.743.531,9.392.817,13.214.817,3.771,0,7.723-.279,14.028-.873.012.422.021.678.021.693A.291.291,0,0,1,42.763,53.385ZM54.145,18.358a.287.287,0,0,1-.184.163,27.385,27.385,0,0,0-4.3,2,31.379,31.379,0,0,0-4.387,2.841.273.273,0,0,1-.184.065.328.328,0,0,1-.052,0,.291.291,0,0,1-.194-.146l-1.755-3.222a187.492,187.492,0,0,0-.508,19.908c.069,1.532.282,8.3.381,11.477-12.683,1.195-15.783,1.111-27.182.055.1-3.149.312-9.991.381-11.531a186.7,186.7,0,0,0-.5-19.776l-1.728,3.179a.292.292,0,0,1-.2.145.314.314,0,0,1-.051,0,.3.3,0,0,1-.187-.065,31.523,31.523,0,0,0-4.384-2.84,27.532,27.532,0,0,0-4.3-2,.3.3,0,0,1-.183-.166.276.276,0,0,1,.014-.244s4.739-7.994,7.166-10.048c1.47-1.244,6.105-2.7,8.774-3.465.878,2.219,3.8,3.824,7.658,4.147.418.035.851.054,1.292.054,3.385,0,7.292-1.1,8.921-4.24,3.048.83,8.419,2.384,9.289,3.253,2.178,2.179,6.388,10.21,6.388,10.21A.309.309,0,0,1,54.145,18.358Z" transform="translate(0 0)" fill="#d7263d"/>
  </g>
</svg>
