<svg id="Grupo_27" data-name="Grupo 27" xmlns="http://www.w3.org/2000/svg" width="89.277" height="81.862" viewBox="0 0 89.277 81.862">
  <path id="Trazado_53" data-name="Trazado 53" d="M66.422,41.457A11.266,11.266,0,0,1,77.693,52.728a11.124,11.124,0,0,1-22.245,0A11.207,11.207,0,0,1,66.422,41.457Zm0,3.856a7.268,7.268,0,1,0,7.415,7.415A7.284,7.284,0,0,0,66.422,45.313Zm-1.483,56.354c-2.966-3.856-8.008-10.974-12.754-18.686L39.728,95.735l6.525,10.974H86.888C83.329,101.371,79.769,95.735,76.21,90.4c-2.966,4.449-5.932,8.6-8.008,11.271A2.328,2.328,0,0,1,64.939,101.667ZM50.109,79.719c-1.483-3.263-3.263-6.229-4.746-9.491H24.9L37.652,92.176Zm16.313,17.5c6.822-8.6,21.652-31.44,21.652-42.117,0-12.161-9.491-22.245-21.652-22.245S45.067,42.94,45.067,55.1C45.067,65.779,59.9,88.617,66.422,97.218ZM43.584,66.075C42.1,61.923,40.915,58.067,40.915,55.1c0-14.237,11.271-26.1,25.508-26.1a25.886,25.886,0,0,1,25.8,26.1c0,2.966-1.186,6.822-2.966,10.974H99.642a1.983,1.983,0,0,1,2.076,1.78c1.186,13.644,2.966,27.584,3.559,40.931a2.027,2.027,0,0,1-2.076,2.076H17.78A2.584,2.584,0,0,1,16,108.489l3.559-40.338a2.027,2.027,0,0,1,2.076-2.076Zm44.194,4.152c-.89,1.483-1.483,2.966-2.373,4.449a47.988,47.988,0,0,1-2.966,5.339H98.752l-.89-9.788Zm-7.712,13.94-1.483,2.373,4.152,6.229h17.2l-.89-8.6Zm20.169,12.754H85.108l6.229,9.788h9.788ZM41.508,106.71,23.118,74.677,20.152,106.71Z" transform="translate(-16 -29)"/>
</svg>
