<svg xmlns="http://www.w3.org/2000/svg" width="80" height="47.889" viewBox="0 0 80 47.889">
  <g id="noun_Cap_451143" transform="translate(-3.971 -201.19)">
    <path id="Path_27" data-name="Path 27" d="M74.726,271.58a14.689,14.689,0,0,0-6.395,2.728c-2,1.306-3.75,2.929-5.707,4.287a27.452,27.452,0,0,1-6.018,3.117,30.353,30.353,0,0,1-6.089,1.575,65.081,65.081,0,0,1-7.563.642,69.316,69.316,0,0,1-12.21-.549,37.461,37.461,0,0,1-7.592-1.852q-.318-.118-.633-.244l-.3-.121c-.175-.073.19.081.018.007l-.184-.08q-.515-.225-1.017-.479a14.024,14.024,0,0,1-1.39-.8q-.148-.1-.291-.2c-.136-.1-.268-.2-.039-.025-.055-.043-.11-.086-.161-.133l.224.384c.072.529-.01-.126-.022-.252-.043-.44-.072-.881-.095-1.323a39.446,39.446,0,0,1,.048-4.637q.05-.74.127-1.478.039-.373.085-.744.023-.19.049-.38c-.033.246.029-.205.041-.283q.247-1.7.65-3.369a33.876,33.876,0,0,1,1.062-3.548c.1-.289.214-.577.326-.863.057-.145.115-.288.174-.432.008-.018.107-.257.033-.08q.061-.144.124-.288.4-.912.856-1.795a25.041,25.041,0,0,1,4.953-6.682,26.725,26.725,0,0,1,8.083-5.282c.8-.345,1.674-.662,2.522-.942-.13.043-.145,0-.055-.013l.184-.023.711-.09,3.466-.439c.206-.026.411-.057.617-.087.1-.014.328-.045-.072.009l.2-.025c.166-.02.333-.036.5-.051a22.7,22.7,0,0,1,3.3-.034c.367.021.734.052,1.1.089.187.019.374.041.56.064l.143.018-.038-.005.342.05a26,26,0,0,1,5.455,1.448c.238.091.473.187.708.285-.218-.091.151.066.209.092.14.062.28.125.419.189.512.236,1.016.49,1.511.759a25.7,25.7,0,0,1,5.994,4.46,33.339,33.339,0,0,1,5.63,7.418,51.187,51.187,0,0,1,4.6,11.11.87.87,0,0,0,1.676-.462c-2.048-6.985-5.253-13.835-10.435-19.056A27.913,27.913,0,0,0,52.877,245.9a25.619,25.619,0,0,0-8.687-.917,13.835,13.835,0,0,0-1.541.183c.479-.09.1-.014-.018,0l-.711.09-1.944.246-1.522.193a8.628,8.628,0,0,0-1.916.582,28.078,28.078,0,0,0-14.492,11.933,34.528,34.528,0,0,0-4.364,14.122,35.208,35.208,0,0,0-.021,7.638c.086.726.6,1.013,1.171,1.386a19.421,19.421,0,0,0,3.912,1.873,37.67,37.67,0,0,0,7.635,1.846,70.466,70.466,0,0,0,12.425.6,70.973,70.973,0,0,0,7.741-.645,31.369,31.369,0,0,0,6.163-1.507,30.063,30.063,0,0,0,6.19-3.02c2.037-1.313,3.809-2.987,5.81-4.356.744-.509,1.511-.987,2.3-1.424q.458-.253.93-.481c.14-.068.282-.134.424-.2l.2-.089a.839.839,0,0,1,.113-.047,10.559,10.559,0,0,1,1.332-.447q.257-.067.518-.113c.066-.012.133-.022.2-.032-.355.05-.087.013,0,.005a.886.886,0,0,0,.869-.869A.872.872,0,0,0,74.726,271.58Z" transform="translate(-13.492 -40.108)" fill="#d7263d"/>
    <path id="Path_28" data-name="Path 28" d="M401.391,568.895a13.58,13.58,0,0,0-5.875,1.184A26.767,26.767,0,0,0,392.2,572c-1.645,1.075-3.245,2.218-4.846,3.358-2.01,1.431-3.972,2.982-6.072,4.279a20.094,20.094,0,0,1-5.537,2.326,27.565,27.565,0,0,1-10.9.367,40.813,40.813,0,0,1-7.613-1.956q-.643-.231-1.277-.484-.264-.1-.526-.214c-.209-.087.172.074-.085-.036l-.224-.1c-.274-.12-.548-.241-.816-.375l-.439,1.62a26.457,26.457,0,0,0,3.642-.317,35.118,35.118,0,0,0,6.365-1.5,30.757,30.757,0,0,0,6.177-2.845c2.1-1.276,3.9-2.957,5.9-4.376a24.884,24.884,0,0,1,4.309-2.525c.029-.013.253-.108.054-.024l.188-.077c.118-.047.237-.092.357-.136q.338-.124.683-.223c.173-.05.348-.094.524-.132.074-.016.15-.03.225-.044s.4-.055.03-.009c.056-.007.112-.013.168-.018.12-.011.239-.014.359-.013.09,0,.315.046-.061-.017.1.017.2.028.3.039l.561.063,2.476.278,14.13,1.585,1.146.129a.87.87,0,0,0,.869-.869.888.888,0,0,0-.869-.869l-11.7-1.313-6.082-.682-.54-.061c-.277-.031.654.086-.069-.008a2.809,2.809,0,0,0-.717.022,10.24,10.24,0,0,0-2.711.793,23.948,23.948,0,0,0-4.191,2.389c-2.006,1.384-3.789,3.06-5.846,4.37a31.384,31.384,0,0,1-12.363,4.374,22.862,22.862,0,0,1-3.308.272.875.875,0,0,0-.439,1.62,32.265,32.265,0,0,0,3.877,1.569,40.682,40.682,0,0,0,9.2,2.038,27.01,27.01,0,0,0,11.428-1.153,22.057,22.057,0,0,0,5.687-2.962c2.023-1.447,4.042-2.9,6.074-4.335a42.822,42.822,0,0,1,6.936-4.351l.112-.049c.193-.084-.179.074.013-.006.108-.045.216-.087.325-.129.209-.08.422-.151.636-.217a9.824,9.824,0,0,1,1.2-.286c.088-.016.177-.029.266-.042.195-.029-.212.027-.016,0l.163-.019c.222-.026.446-.044.669-.058.466-.03.933-.038,1.4-.039A.87.87,0,0,0,401.391,568.895Z" transform="translate(-321.245 -335.358)" fill="#d7263d"/>
    <path id="Path_29" data-name="Path 29" d="M757.207,595.641a4.613,4.613,0,0,1-.389.675c-.022.031-.156.207-.02.033-.04.052-.083.1-.126.152-.1.118-.209.229-.32.337s-.2.183-.3.271c-.025.021-.206.164-.039.035-.055.043-.112.083-.168.124a7.638,7.638,0,0,1-.794.492,13.24,13.24,0,0,1-3.668,1.223c-.34.07-.682.13-1.024.185-.173.028-.346.053-.52.078-.286.04.169-.021-.117.016l-.349.042c-.724.085-1.452.143-2.18.184-1.335.076-2.674.085-4.01.051-1.214-.031-2.429-.1-3.637-.218l.439,1.62c1.831-1.311,3.66-2.626,5.519-3.9,1.207-.826,2.429-1.639,3.713-2.34q.356-.194.72-.372c.114-.056.229-.109.344-.162l.168-.076c.229-.1-.07.027.068-.03a10.536,10.536,0,0,1,1.327-.45c.207-.055.417-.1.627-.143.105-.021.211-.039.317-.056l.16-.025c.157-.024-.214.026.038-.005.473-.059.949-.086,1.425-.1.251-.007.5-.009.753-.01a.877.877,0,0,0,.869-.869.888.888,0,0,0-.869-.869l-.3-.034v1.738a3.4,3.4,0,0,1,1.863.573c-.158-.112.1.1.139.139s.088.1.129.147c-.141-.171-.015-.01.009.027.039.06.2.4.1.162a2.377,2.377,0,0,1,.1.322c.016.065.063.379.026.087a3,3,0,0,1,.02.305c0,.095,0,.189-.007.284s-.05.4,0,.061a2.754,2.754,0,0,1-.115.5c-.367,1.063,1.313,1.515,1.676.462a3.977,3.977,0,0,0,.05-2.272c-.494-1.784-2.318-2.423-3.989-2.539a.873.873,0,0,0-.869.869.888.888,0,0,0,.869.869l.3.034v-1.738a13.58,13.58,0,0,0-5.875,1.184,26.764,26.764,0,0,0-3.32,1.922c-1.645,1.075-3.245,2.218-4.846,3.358q-1.009.719-2.016,1.44a.877.877,0,0,0,.439,1.62,50.583,50.583,0,0,0,5.228.236,31.3,31.3,0,0,0,8.627-1.019c2.074-.6,4.346-1.7,5.309-3.757a.887.887,0,0,0-.312-1.189A.872.872,0,0,0,757.207,595.641Z" transform="translate(-675.015 -357.997)" fill="#d7263d"/>
    <path id="Path_30" data-name="Path 30" d="M263.472,293.866a5,5,0,0,0-.231,1.163,16.318,16.318,0,0,0-.021,3.4c.442,5.5,2.268,10.9,4.26,16.006,1.447,3.711,3.089,7.346,4.837,10.925.328.671,1.327.084,1-.585-3.386-6.931-6.539-14.162-8.208-21.725a30.848,30.848,0,0,1-.788-5.557,16.88,16.88,0,0,1,.012-1.744q.02-.316.057-.63A.635.635,0,0,1,264.4,295q.017-.114.038-.228a3.249,3.249,0,0,1,.148-.6c.271-.7-.85-1-1.118-.308Z" transform="translate(-238.832 -84.647)" fill="#d7263d"/>
    <path id="Path_31" data-name="Path 31" d="M375.522,271.916a12.353,12.353,0,0,1,1.79.47c.31.1.617.208.922.322q.25.093.5.192l.261.106c.175.072.044.017.221.094a26.393,26.393,0,0,1,2.517,1.255A32.225,32.225,0,0,1,393.566,286.5a45.542,45.542,0,0,1,3.916,9.082c.224.71,1.343.407,1.118-.308-2.173-6.9-5.763-13.474-11.235-18.307a27.518,27.518,0,0,0-10.158-5.83,10.955,10.955,0,0,0-1.376-.341c-.731-.118-1.044,1-.308,1.118Z" transform="translate(-341.523 -63.838)" fill="#d7263d"/>
    <path id="Path_32" data-name="Path 32" d="M369.259,352.767a.576.576,0,0,1-1.01.552.569.569,0,0,1,.257-.758.587.587,0,0,1,.812.344c.325.673,1.324.085,1-.585a1.719,1.719,0,1,0,.059.139C370.12,351.764,369,352.064,369.259,352.767Z" transform="translate(-334.127 -137.727)" fill="#d7263d"/>
    <path id="Path_33" data-name="Path 33" d="M247.487,203.764a.9.9,0,0,1-.209.644,1.526,1.526,0,0,1-.912.5c-.408.088-.822.151-1.232.227l-1.309.241a1.4,1.4,0,0,1-.815-.118,1.327,1.327,0,0,1-.424-.332c-.073-.079-.138-.4-.138-.149a1.276,1.276,0,0,1,.23-.884,1.463,1.463,0,0,1,.916-.5c.4-.087.813-.149,1.218-.224.918-.169,2.4-.626,2.67.6a.864.864,0,0,0,.838.638h.006c1.114-.065,1.12-1.8,0-1.738h-.006l.838.638a2.778,2.778,0,0,0-2.21-2.06,5.2,5.2,0,0,0-1.976.133l-1.728.318a3.235,3.235,0,0,0-2.129,1.411,2.48,2.48,0,0,0,.173,2.966,3.128,3.128,0,0,0,3,.981c.466-.076.93-.171,1.394-.257a11.958,11.958,0,0,0,1.505-.307,2.844,2.844,0,0,0,1.981-3.185.871.871,0,0,0-1.069-.607A.89.89,0,0,0,247.487,203.764Z" transform="translate(-218.25 0)" fill="#d7263d"/>
    <path id="Path_34" data-name="Path 34" d="M161.875,380.157a.576.576,0,0,1-1.01.552.569.569,0,0,1,.257-.758.587.587,0,0,1,.812.344c.325.673,1.324.085,1-.585a1.719,1.719,0,1,0,.059.138C162.736,379.154,161.615,379.454,161.875,380.157Z" transform="translate(-143.911 -162.849)" fill="#d7263d"/>
  </g>
</svg>
