<svg xmlns="http://www.w3.org/2000/svg" width="86.46" height="86.46" viewBox="0 0 86.46 86.46">
  <g id="noun_Time_1873114" transform="translate(-2.25 -2.25)">
    <path id="Trazado_57" data-name="Trazado 57" d="M45.48,2.25A43.23,43.23,0,1,0,88.71,45.48,43.278,43.278,0,0,0,45.48,2.25Zm0,82.839A39.609,39.609,0,1,1,85.089,45.48,39.653,39.653,0,0,1,45.48,85.089Z"/>
    <path id="Trazado_58" data-name="Trazado 58" d="M70.789,22.325a1.9,1.9,0,0,0-.129-.157,1.608,1.608,0,0,0-.157-.128,34.218,34.218,0,0,0-48.177,0,1.648,1.648,0,0,0-.158.129c-.049.05-.087.105-.129.158a34.219,34.219,0,0,0,0,48.178,1.607,1.607,0,0,0,.128.157,1.9,1.9,0,0,0,.157.129,34.22,34.22,0,0,0,48.18,0,1.009,1.009,0,0,0,.282-.282,34.22,34.22,0,0,0,0-48.18Zm1.88,25.9h4.356a30.53,30.53,0,0,1-7.7,18.542L66.26,63.7a1.81,1.81,0,0,0-2.56,2.56l3.069,3.069a30.53,30.53,0,0,1-18.543,7.7V72.67a1.811,1.811,0,0,0-3.621,0v4.356a30.532,30.532,0,0,1-18.542-7.7l3.069-3.069a1.81,1.81,0,0,0-2.56-2.56L23.5,66.769a30.536,30.536,0,0,1-7.7-18.543H20.16a1.811,1.811,0,0,0,0-3.621H15.8a30.537,30.537,0,0,1,7.7-18.542l3.069,3.069a1.81,1.81,0,0,0,2.56-2.56L26.061,23.5a30.537,30.537,0,0,1,18.542-7.7V20.16a1.811,1.811,0,0,0,3.621,0V15.8a30.535,30.535,0,0,1,18.542,7.7L63.7,26.57a1.81,1.81,0,1,0,2.56,2.56l3.069-3.069a30.532,30.532,0,0,1,7.7,18.542H72.67a1.811,1.811,0,0,0,0,3.622Z" transform="translate(-0.935 -0.935)"/>
    <path id="Trazado_59" data-name="Trazado 59" d="M51.621,46.972V28.061a1.811,1.811,0,0,0-3.621,0V47.752a.225.225,0,0,0,0,.024,1.72,1.72,0,0,0,.022.215c.006.046.007.094.017.139a1.931,1.931,0,0,0,.058.187c.016.05.028.1.049.148s.056.1.084.156.053.1.085.152.065.079.1.119a1.826,1.826,0,0,0,.134.155.171.171,0,0,0,.017.019l8.374,7.922a1.81,1.81,0,1,0,2.488-2.631Z" transform="translate(-4.331 -2.272)"/>
  </g>
</svg>
