<svg xmlns="http://www.w3.org/2000/svg" width="58.071" height="60" viewBox="0 0 58.071 60">
  <g id="Grupo_20" data-name="Grupo 20" transform="translate(-1.928 -2)">
    <path id="Trazado_28" data-name="Trazado 28" d="M22.077,56.386l1.575.472.574-1.916-1.574-.472a1.007,1.007,0,0,1-.713-.958v-6.7a12.831,12.831,0,0,0,2.5-.908l-.873-1.8a10.933,10.933,0,0,1-2.808.915,1,1,0,0,0-.821.984v7.512a2.983,2.983,0,0,0,2.14,2.871Z" fill="#d7263d"/>
    <path id="Trazado_29" data-name="Trazado 29" d="M49.247,11.279l-.494,1.939a7.026,7.026,0,0,1,5.2,5.9l1.985-.242a9.026,9.026,0,0,0-6.686-7.6Z" fill="#d7263d"/>
    <rect id="Rectángulo_2" data-name="Rectángulo 2" width="2.006" height="2" transform="matrix(0.075, -0.997, 0.997, 0.075, 53.798, 22.924)" fill="#d7263d"/>
    <path id="Trazado_30" data-name="Trazado 30" d="M47.939,2h-8a3,3,0,0,0-3,3V7.615a13.03,13.03,0,0,0-8.321,8.052l1.886.666A11.025,11.025,0,0,1,40.879,9H47A11,11,0,0,1,57.968,20.828L57.5,27H33v2H57.352l-2.2,29.15a2.008,2.008,0,0,1-2,1.85H49.939v2h3.218a4.018,4.018,0,0,0,3.989-3.7l2.816-37.322A12.989,12.989,0,0,0,50.939,7.615V5A3,3,0,0,0,47.939,2Zm-7.06,5a12.984,12.984,0,0,0-1.94.149V5a1,1,0,0,1,1-1h8a1,1,0,0,1,1,1V7.164A12.931,12.931,0,0,0,47,7Z" fill="#d7263d"/>
    <path id="Trazado_31" data-name="Trazado 31" d="M26.939,62h20a1,1,0,0,0,1-1V37a1,1,0,0,0-1-1h-20a1,1,0,0,0-1,1V61A1,1,0,0,0,26.939,62Zm1-2V48h18V60Zm18-22v8H39.353l1.293-1.293-1.414-1.414-2.293,2.293-2.293-2.293-1.414,1.414L34.525,46H27.939V38Z" fill="#d7263d"/>
    <rect id="Rectángulo_3" data-name="Rectángulo 3" width="2" height="2" transform="translate(29.939 51)" fill="#d7263d"/>
    <rect id="Rectángulo_4" data-name="Rectángulo 4" width="2" height="2" transform="translate(35.939 55)" fill="#d7263d"/>
    <rect id="Rectángulo_5" data-name="Rectángulo 5" width="2" height="2" transform="translate(40.939 51)" fill="#d7263d"/>
    <path id="Trazado_32" data-name="Trazado 32" d="M7.122,25.749,6.278,32.78a12.9,12.9,0,0,0,9.661,14.027v6.7a1,1,0,0,1-.713.958l-5.7,1.71A5,5,0,0,0,5.939,61a1,1,0,0,0,1,1h17V60H8.1a3.014,3.014,0,0,1,2-1.9l5.7-1.71a2.982,2.982,0,0,0,2.138-2.874V46a1,1,0,0,0-.821-.984,10.892,10.892,0,0,1-8.854-12L8.626,30H29.252l.362,3.019c.041.337.065.674.074,1.008l2-.054q-.016-.592-.088-1.193l-1.668-13.9a1,1,0,0,0-.993-.88h-7.78l1.76-8.8-1.961-.4L19.119,18h-3.26a7,7,0,1,0-8.737,7.749ZM28.052,20l.96,8H19.159l1.6-8ZM17.119,28H8.866l.96-8h8.893ZM8.939,14a5.009,5.009,0,0,1,4.9,4h-4.9a1,1,0,0,0-.993.881l-.582,4.855A4.995,4.995,0,0,1,8.939,14Z" fill="#d7263d"/>
    <rect id="Rectángulo_6" data-name="Rectángulo 6" width="2" height="2" transform="translate(10.939 33)" fill="#d7263d"/>
    <rect id="Rectángulo_7" data-name="Rectángulo 7" width="2" height="2" transform="translate(19.939 35)" fill="#d7263d"/>
    <rect id="Rectángulo_8" data-name="Rectángulo 8" width="2" height="2" transform="translate(17.939 41)" fill="#d7263d"/>
  </g>
</svg>
