<svg xmlns="http://www.w3.org/2000/svg" width="42.463" height="59.375" viewBox="0 0 42.463 59.375">
  <g id="Grupo_26" data-name="Grupo 26" transform="translate(-10.556 -2.625)">
    <rect id="Rectángulo_9" data-name="Rectángulo 9" width="2" height="2" transform="translate(31 22)" fill="#d7263d"/>
    <rect id="Rectángulo_10" data-name="Rectángulo 10" width="2" height="2" transform="translate(27 25)" fill="#d7263d"/>
    <rect id="Rectángulo_11" data-name="Rectángulo 11" width="2" height="2" transform="translate(23 23)" fill="#d7263d"/>
    <rect id="Rectángulo_12" data-name="Rectángulo 12" width="2" height="2" transform="translate(35 25)" fill="#d7263d"/>
    <rect id="Rectángulo_13" data-name="Rectángulo 13" width="2" height="2" transform="translate(19 26)" fill="#d7263d"/>
    <path id="Trazado_49" data-name="Trazado 49" d="M10.688,10.412a4,4,0,0,0,.455,3.107,3.922,3.922,0,0,0,3.381,1.849,4.134,4.134,0,0,0,1.962-.494l3.12-1.733,4.4,5.865c-7.371,2.014-12.154,6.953-13,13.873a2.679,2.679,0,0,0,.637,2.132A2.914,2.914,0,0,0,13,35.839V41a1,1,0,0,0,1,1h1v2a3,3,0,0,0-3,3v2a3,3,0,0,0,3,3v2H14a1,1,0,0,0-1,1v4a3,3,0,0,0,3,3H48a3,3,0,0,0,3-3V55a1,1,0,0,0-1-1H49V52a3,3,0,0,0,3-3V47a3,3,0,0,0-3-3V42h1a1,1,0,0,0,1-1V35.839a2.914,2.914,0,0,0,1.356-.828,2.679,2.679,0,0,0,.637-2.132C51.874,23.7,43.83,18,32,18a31.976,31.976,0,0,0-5.857.525L21.37,12.161l4.11-2.284a3.7,3.7,0,0,0,1.831-2.286,4.006,4.006,0,0,0-.456-3.106,4.032,4.032,0,0,0-5.341-1.359l-4.3,2.39-1.38-2.071L14.17,4.555,15.46,6.49,12.526,8.119a3.7,3.7,0,0,0-1.838,2.293ZM49,59a1,1,0,0,1-1,1H16a1,1,0,0,1-1-1V56H49Zm-2-5H17V52H47Zm3-7v2a1,1,0,0,1-1,1H45.414l1.293-1.293-1.414-1.414L42.586,50H33.414l1.293-1.293-1.414-1.414L30.586,50H28.414l1.293-1.293-1.414-1.414L25.586,50H23.414l1.293-1.293-1.414-1.414L20.586,50H18.414l1.293-1.293-1.414-1.414L15.586,50H15a1,1,0,0,1-1-1V47a1,1,0,0,1,1-1H33.649l4.726,3.781a1,1,0,0,0,1.25,0L44.351,46H49A1,1,0,0,1,50,47ZM36.851,46h4.3L39,47.72ZM17,44V42H47v2Zm8.171-4a3,3,0,0,1,5.658,0Zm16,0a3,3,0,0,1,5.658,0ZM49,40h-.1a5,5,0,0,0-9.8,0H32.9a5,5,0,0,0-9.8,0H15V36h.1a5,5,0,0,0,9.8,0h6.2a5,5,0,0,0,9.8,0H49ZM17.171,36h5.658a3,3,0,0,1-5.658,0Zm16,0h5.658a3,3,0,0,1-5.658,0Zm17.836-2.879a.684.684,0,0,1-.148.565A1.138,1.138,0,0,1,50,34H14a1.138,1.138,0,0,1-.859-.314.684.684,0,0,1-.148-.565C14.172,23.447,23.585,20,32,20s17.828,3.447,19.007,13.121ZM12.616,10.942a1.708,1.708,0,0,1,.87-1.068l8.988-4.993a2.091,2.091,0,0,1,1-.249,1.936,1.936,0,0,1,1.674.887,2,2,0,0,1,.239,1.542,1.69,1.69,0,0,1-.856,1.058l-.012.007-8.988,4.993a2.032,2.032,0,0,1-2.671-.634,2,2,0,0,1-.244-1.543Z" fill="#d7263d"/>
    <path id="Trazado_50" data-name="Trazado 50" d="M46,32h2c0-5.595-7.3-8.786-7.606-8.919l-.788,1.838C39.67,24.946,46,27.709,46,32Z" fill="#d7263d"/>
  </g>
</svg>
