<svg xmlns="http://www.w3.org/2000/svg" width="87.818" height="81.862" viewBox="0 0 87.818 81.862">
  <g id="Grupo_28" data-name="Grupo 28" transform="translate(-17.387 -28)">
    <path id="Trazado_54" data-name="Trazado 54" d="M21.984,80.415,42.3,58.625a2.249,2.249,0,0,1,1.472-.589h5.3A1.9,1.9,0,0,1,50.842,59.8v2.061H71.749V59.8a1.969,1.969,0,0,1,2.061-1.767h5.006a3.157,3.157,0,0,1,1.767.589l20.024,21.791a1.53,1.53,0,0,1,.589,1.178V107.8a2.013,2.013,0,0,1-2.061,2.061H23.457A2.013,2.013,0,0,1,21.4,107.8V81.593A1.53,1.53,0,0,1,21.984,80.415Zm3.534,2.061V105.74h71.85V82.477L78.228,61.864h-2.65v2.061a1.969,1.969,0,0,1-1.767,2.061H49.075a2.013,2.013,0,0,1-2.061-2.061V61.864H44.658ZM20.512,55.091C12.267,43.312,21.4,28,35.53,28H87.062c14.134,0,23.263,15.312,15.018,27.091a1.988,1.988,0,0,1-1.767,1.178H74.4a2.1,2.1,0,0,1-1.472-3.239c9.129-12.957-31.214-12.662-23.263,0a2.044,2.044,0,0,1-1.472,3.239H22.279A1.988,1.988,0,0,1,20.512,55.091Zm2.65-2.945H44.953c-5.595-16.785,39.753-16.785,32.98,0h21.5c5.595-9.129-1.767-20.318-12.368-20.318H35.53C24.929,31.828,17.567,43.018,23.162,52.146ZM61.443,66.87A16.933,16.933,0,1,1,44.364,83.949,17.032,17.032,0,0,1,61.443,66.87Zm0,3.828A13.1,13.1,0,1,0,74.4,83.949,13.136,13.136,0,0,0,61.443,70.7Zm0,3.239A9.866,9.866,0,1,1,51.431,83.949,9.869,9.869,0,0,1,61.443,73.937Zm0,3.828a6.038,6.038,0,0,0-6.184,6.184,5.976,5.976,0,0,0,6.184,5.889,5.907,5.907,0,0,0,5.889-5.889A5.976,5.976,0,0,0,61.443,77.765Z" transform="translate(0)"/>
  </g>
</svg>
