<svg xmlns="http://www.w3.org/2000/svg" width="220" height="93" viewBox="0 0 220 93">
  <g id="Group_27" data-name="Group 27" transform="translate(-1.556 -0.887)">
    <path id="Path_56" data-name="Path 56" d="M221.532,14.741a7.2,7.2,0,0,0-5.676-6.548,11.471,11.471,0,0,0-2.046-.205l-.22-.008q-2.817-.111-5.634-.209L74.087,2.886q-3.606-.134-7.211-.261-2.069-.071-4.137-.134l-2.745-.083c-.892-.028-1.784-.064-2.676-.1l-3.237-.134q-2.9-.115-5.8-.227l-3.331-.1c-1.147-.036-2.293-.071-3.437-.113q-2.706-.1-5.412-.213-2.97-.121-5.943-.233c-1.476-.055-2.938-.1-4.407-.142l-3.171-.094c-.681-.009-1.359-.031-2.035-.082a25.4,25.4,0,0,0-8.753.835A15.63,15.63,0,0,0,4.353,6a9.579,9.579,0,0,0-2.714,8.026c.1.764.181,1.531.258,2.3L9.054,79.681c.15,1.255.3,2.51.412,3.767A8.537,8.537,0,0,0,11.93,89.08,14.89,14.89,0,0,0,14.62,91.2a20.25,20.25,0,0,0,10.291,2.682h.178l1.274-.106c.863-.071,1.727-.134,2.586-.235,1.207-.134,2.4-.283,3.6-.432l104.4-12.605c.927-.107,1.855-.216,2.78-.327l26.6-3.218c1.026-.134,2.053-.257,3.079-.38q1.476-.18,2.939-.346t2.973-.35l2.9-.358q1.525-.193,3.055-.378,1.425-.173,2.847-.334,1.536-.18,3.067-.362,1.629-.2,3.256-.4c1.15-.143,2.3-.288,3.45-.428q1.67-.2,3.342-.393t3.373-.4c.952-.115,1.9-.236,2.855-.357,1.54-.2,3.079-.392,4.62-.562a10.03,10.03,0,0,0,8.643-7.817,26.191,26.191,0,0,0,.347-2.729l.079-.821q.125-1.207.241-2.414l3.728-36.723c.11-1,.219-2,.3-3l.021-.268a22.59,22.59,0,0,0,.1-3.4Z" transform="translate(0 0)" fill="#5f6060"/>
    <path id="Path_57" data-name="Path 57" d="M214.3,10.613a10.363,10.363,0,0,0-1.709-.143c-2.608-.1-5.215-.193-7.823-.288L194.278,9.8q-3.909-.145-7.823-.286l-10.542-.383-7.78-.284-10.589-.385-7.728-.283L139.177,7.79l-7.68-.282-10.637-.387-7.728-.282q-5.293-.2-10.591-.386l-7.728-.282L84.223,5.784,76.495,5.5,65.9,5.118c-2.29-.079-4.581-.141-6.872-.213-.97-.031-1.94-.071-2.91-.109-2.942-.117-5.882-.24-8.824-.349-2.259-.082-4.518-.134-6.776-.22-3.784-.142-7.568-.306-11.352-.446-2.29-.086-4.581-.142-6.871-.216-.955-.031-1.912-.043-2.863-.114a21.839,21.839,0,0,0-7.6.72A12.248,12.248,0,0,0,5.948,7.429a6.25,6.25,0,0,0-1.844,5.3c.166,1.225.268,2.46.4,3.691q.248,2.246.5,4.491.268,2.388.545,4.776.258,2.268.512,4.54L6.6,34.951q.26,2.293.516,4.587l.537,4.68q.258,2.3.511,4.588c.178,1.577.362,3.152.537,4.729.172,1.528.339,3.058.512,4.587.177,1.561.361,3.12.537,4.68.172,1.53.335,3.059.508,4.588.178,1.593.365,3.184.545,4.776.173,1.512.341,3.026.512,4.54.211,1.86.459,3.716.622,5.58A5.32,5.32,0,0,0,13.4,85.811a11.6,11.6,0,0,0,2.086,1.658,17,17,0,0,0,8.633,2.2c1.207-.1,2.407-.186,3.606-.318,1.734-.192,3.466-.418,5.2-.629l5.105-.611,5.2-.631,4.3-.516,5.2-.63,4.346-.53q2.549-.31,5.105-.614c1.7-.2,3.4-.4,5.105-.606,1.744-.21,3.5-.426,5.245-.637q2.529-.307,5.057-.61l5.2-.631,5.15-.626,5.105-.614c1.7-.2,3.4-.4,5.105-.606,1.744-.209,3.5-.425,5.245-.637q2.529-.307,5.057-.61,2.6-.314,5.2-.631c1.434-.173,2.867-.341,4.3-.515,1.717-.208,3.434-.422,5.151-.629s3.4-.4,5.105-.607,3.431-.426,5.15-.633,3.4-.393,5.105-.6c1.985-.24,3.968-.5,5.953-.736s3.94-.46,5.9-.7,3.968-.5,5.953-.736,3.94-.459,5.9-.7,3.968-.5,5.953-.736,3.94-.457,5.909-.694,3.967-.5,5.951-.737,3.942-.456,5.912-.694c2.236-.268,4.47-.56,6.707-.831s4.476-.519,6.714-.79c2.5-.3,5-.646,7.512-.922a6.75,6.75,0,0,0,5.724-5.128c.208-1.073.268-2.171.382-3.258.148-1.405.278-2.815.421-4.217.176-1.736.36-3.471.537-5.207.142-1.405.275-2.815.417-4.217.177-1.754.361-3.5.537-5.257.141-1.389.275-2.779.416-4.17l.537-5.3c.134-1.373.268-2.747.412-4.121q.268-2.653.545-5.3c.146-1.421.321-2.84.435-4.262a21.856,21.856,0,0,0,.118-3.173,3.831,3.831,0,0,0-3-3.5Z" transform="translate(0.86 0.859)" fill="#0e070f" fill-rule="evenodd"/>
    <g id="Group_23" data-name="Group 23" transform="translate(32.407 14.391)">
      <path id="Path_58" data-name="Path 58" d="M174.133,41.643v-.008c-.276-.5-.563-.988-.854-1.479l-1.557-2.441-.916,1.21a2.254,2.254,0,0,0-.188.269,14.054,14.054,0,0,1-3.84,4.289,19.864,19.864,0,0,1-3.87,2.259,11.238,11.238,0,0,0,2.43-3.674,7.09,7.09,0,0,0,.446-3.589,10.939,10.939,0,0,0-1.774-4.437c-.592-.92-1.225-1.814-1.86-2.707-.261-.368-.522-.736-.781-1.108.194-.269.39-.526.586-.788.3-.4.6-.807.9-1.21a10.967,10.967,0,0,0,2.341-4.894,3.329,3.329,0,0,0-1.21-2.824,6.423,6.423,0,0,0-4.394-.672,6.656,6.656,0,0,0-4.315,2.689,13.523,13.523,0,0,0-2.307,4.4,9.95,9.95,0,0,0-.5,4.706,35.476,35.476,0,0,1-3.777,4.437c-.179.179-.351.364-.518.553l-.746-.445-.635,1.246a3.9,3.9,0,0,1-.195.375c-.066.106-.134.218-.192.328a2.4,2.4,0,0,1-.335.5c-1.177,1.041-2.388,2.044-3.6,3.044a3.913,3.913,0,0,1-2.89.753,1.535,1.535,0,0,1,.089-.461c.282-.733.574-1.463.867-2.193.4-1,.807-2,1.179-3.017a12.55,12.55,0,0,0,.983-4.993,4.366,4.366,0,0,0-1.166-2.845,6.25,6.25,0,0,0-4.355-1.783,21.827,21.827,0,0,0-3.275.078,9.737,9.737,0,0,0-2.7.621l.183-.44h-8.239l-.367.714c-.075.144-.148.285-.214.432L117.391,40.2c-.578,1.3-1.156,2.6-1.748,3.891a5.709,5.709,0,0,1-2.24.819,1.268,1.268,0,0,1-.126.015l.027-.079c.176-.463.356-.922.553-1.374l3.212-7.283c.746-1.7,1.49-3.4,2.256-5.081a1.444,1.444,0,0,0-.7-2.051c-1.19-.636-2.372-1.287-3.554-1.936l-4.39-2.387L103.725,40.4q-.573,1.291-1.155,2.578l-.243.538c-.429.941-.858,1.882-1.32,2.809a1.248,1.248,0,0,1-.608.637.894.894,0,0,1,.063-.269c.471-1.168.948-2.333,1.454-3.484q1.71-3.9,3.45-7.783c.48-1.076.967-2.151,1.452-3.218l1.018-2.248c.113-.251.216-.507.325-.773l.746-1.794h-10a1.367,1.367,0,0,0-1.318.894q-.733,1.666-1.47,3.331-1.076,2.42-2.135,4.858c-.621,1.437-1.229,2.882-1.837,4.326-.4.957-.807,1.916-1.144,2.783a7.559,7.559,0,0,1-3.093,1.345,1.691,1.691,0,0,1-.219.02,1.374,1.374,0,0,1,.044-.155,6.961,6.961,0,0,1,.316-.753l1.136-2.5c.75-1.647,1.5-3.294,2.217-4.956a11.592,11.592,0,0,0,.941-6.657,4.628,4.628,0,0,0-3.714-4.084,11.526,11.526,0,0,0-4.168-.017,9.816,9.816,0,0,0-5.244,2.311l-.056.024-.054-.028c-.956-.538-1.927-1.047-2.9-1.558-.641-.339-1.283-.672-1.93-1.026a1.374,1.374,0,0,0-2.255.764L68.014,35.39c-1.2,2.722-2.4,5.443-3.577,8.174a.834.834,0,0,1-.425.479l-.351.177a5.2,5.2,0,0,1-.477.231A7.7,7.7,0,0,1,61.455,45c.019-.066.036-.134.054-.2a1.053,1.053,0,0,1,.05-.172q.6-1.37,1.21-2.735l5.36-12.1L60,25.281l-.953-.376-.487.89a2.073,2.073,0,0,0-.134.269l-6.41,14.268q-.929,2.087-1.869,4.168a6.96,6.96,0,0,0-.682,4.511,5.073,5.073,0,0,0,3.051,3.764,6.351,6.351,0,0,0,2.958.292,18.042,18.042,0,0,0,4.168-.807c.35-.116.7-.239,1.045-.366l-.219.592,1.027.649h.883q4.42,0,8.836-.007a1.479,1.479,0,0,0,1.256-.874c.44-.961.867-1.927,1.295-2.9l5.356-12.082c.623-1.405,1.245-2.812,1.882-4.21a1.127,1.127,0,0,1,.851-.733l-2.945,6.59c-.619,1.376-1.237,2.75-1.843,4.131-.506,1.154-1,2.286-1.413,3.471a4.656,4.656,0,0,0,.222,3.9,5.342,5.342,0,0,0,4.6,2.673,12.666,12.666,0,0,0,3.121-.269,23.4,23.4,0,0,0,7.127-2.662c.044-.024.087-.05.134-.073a5.228,5.228,0,0,0,2.934,2.45,13.333,13.333,0,0,0,4.763.68,8.14,8.14,0,0,0,3.672-.889c.347-.177.682-.379,1.013-.588a3.024,3.024,0,0,0,2.27,1.275,6.6,6.6,0,0,0,1.312.032l.356-.013a15.463,15.463,0,0,0,4.908-1l.062-.023L106.92,63.759h11.772l4.9-11.013a7.162,7.162,0,0,0,4.1.051,14.265,14.265,0,0,0,6.644-3.707c.1-.1.2-.192.3-.29l-.008.083-.269,3.836,1.826-.769A34.062,34.062,0,0,0,144,47.813a6.164,6.164,0,0,0,3.952,4.388,14.938,14.938,0,0,0,6.843.836l.422-.04c1.138-.112,2.314-.226,3.476-.411a24.168,24.168,0,0,0,6.153-1.928,23.229,23.229,0,0,0,5.171-3.122,19.3,19.3,0,0,0,4.055-4.42A1.525,1.525,0,0,0,174.133,41.643Zm-23.463,3.6a1.6,1.6,0,0,1-.168.027c-.011-.03-.022-.066-.034-.113a3.63,3.63,0,0,1,.122-2.258,2.985,2.985,0,0,1,.572-.74c.113-.121.223-.239.327-.36q1.479-1.717,2.977-3.41c.094-.108.19-.212.285-.317a6.69,6.69,0,0,1,.07.77,7.569,7.569,0,0,1-1.218,4.572h0a3.421,3.421,0,0,1-2.648,1.77,2.163,2.163,0,0,0-.285.059ZM134.49,32.506l-.932-.386h0Zm-1.088-.012c-.307.73-.631,1.455-.953,2.18l-.163.36q-1.458,3.263-2.927,6.52l-.492,1.095c-.495,1.109-.99,2.219-1.528,3.305a2.323,2.323,0,0,1-.932,1.125l.032-.124a7.31,7.31,0,0,1,.35-1.119c.793-1.8,1.614-3.6,2.42-5.392l1.748-3.867c.528-1.174,1.056-2.348,1.6-3.514a.839.839,0,0,1,.827-.571Z" transform="translate(-16.449 -7.904)" fill="#fff"/>
      <path id="Path_59" data-name="Path 59" d="M59.818,40.013a15.142,15.142,0,0,0,2.4-3.411c.613-1.268,1.2-2.555,1.776-3.838l.565-1.241q1.244-2.734,2.48-5.47c.941-2.111,1.882-4.225,2.873-6.454a6.114,6.114,0,0,0,.737-3.555,4.367,4.367,0,0,0-1.834-2.973,12.371,12.371,0,0,0-6.836-2.094,19.925,19.925,0,0,0-5.345.354,11.616,11.616,0,0,0-3.813,1.425,7.6,7.6,0,0,0-.9-.55,12.572,12.572,0,0,0-5.454-1.049c-2.918-.059-5.88-.043-8.74-.027l-2.056.011a2.519,2.519,0,0,0-2.619,2.332,8.786,8.786,0,0,0,0,1.388,2.286,2.286,0,0,0,2.363,2.126h1.129c1.166,0,2.336,0,3.505-.007a1.829,1.829,0,0,1,1.139.36c.389.269.4.444.249.8L24.5,56.157h4.444c2.006,0,4.011-.017,6.017.031H35.1a2.443,2.443,0,0,0,2.582-1.759c.327-.921.737-1.81,1.173-2.751l.467-1.019q.793-1.767,1.614-3.523a5.008,5.008,0,0,1,.741-.043,27.439,27.439,0,0,0,5.356-.538,26.033,26.033,0,0,0,6.846-2.169A18.5,18.5,0,0,0,59.818,40.013ZM58.491,18.151a10.98,10.98,0,0,1-1.025,2.7c-.2.411-.394.823-.571,1.241-.615,1.452-1.264,2.89-1.913,4.326l-3.269,7.292q-.691,1.549-1.393,3.093a5.633,5.633,0,0,1-1.644,1.85,22.765,22.765,0,0,1-5.163,3l-.192.086c.042-.1.083-.191.126-.286q1.4-3.148,2.8-6.293l1.158-2.57q.613-1.351,1.221-2.708l3.136-7.063c.523-1.181,1.045-2.363,1.605-3.524a3.661,3.661,0,0,1,2.442-2.19,5.159,5.159,0,0,1,1.21-.173,2.053,2.053,0,0,1,1.159.319A1.166,1.166,0,0,1,58.491,18.151Z" transform="translate(-24.5 -10.93)" fill="#fff"/>
      <path id="Path_60" data-name="Path 60" d="M57.8,20.828A3.144,3.144,0,0,0,59.2,24.356a6.613,6.613,0,0,0,3.3.921h.161a10.586,10.586,0,0,0,4.689-1.166,6.632,6.632,0,0,0,3.2-3.156,3.27,3.27,0,0,0-1.318-4.377,7.18,7.18,0,0,0-4.92-.672,10.98,10.98,0,0,0-3.5,1.314A5.755,5.755,0,0,0,57.8,20.828Z" transform="translate(-13.221 -9.273)" fill="#fff"/>
      <path id="Path_61" data-name="Path 61" d="M117.008,26.063l.155.065c1.182.5,2.363,1,3.548,1.479.307,1.439.617,2.876.935,4.332l.807,3.414,1.326-1.647.194-.258.39-1.748c.269-1.222.538-2.446.836-3.664a2.72,2.72,0,0,0,.058-.4c.683-.28,1.362-.571,2.04-.863l.441-.188c.356-.153.711-.311,1.093-.48l2.689-1.186-3.309-1.421c-1-.433-1.959-.848-2.937-1.237l-1.256-5.693-.257-.762-1.6-.07-.5,2.064q-.5,2.233-1,4.464c-.179.079-.358.153-.538.229l-5.358,2.286,1.858,1.088a2.79,2.79,0,0,0,.381.2Z" transform="translate(6.099 -9.275)" fill="#fff"/>
    </g>
    <g id="Group_24" data-name="Group 24" transform="translate(33.974 15.308)">
      <path id="Path_62" data-name="Path 62" d="M172.988,41.859c-.358-.652-.745-1.288-1.121-1.93-.134-.238-.277-.477-.434-.749a2.67,2.67,0,0,0-.2.269,14.958,14.958,0,0,1-4.117,4.593,18.673,18.673,0,0,1-6.071,3.078c-.656.18-1.345.247-2.017.367-.007-.042-.012-.085-.019-.126.483-.4.969-.8,1.447-1.21a12.126,12.126,0,0,0,3.684-4.706,6.082,6.082,0,0,0,.386-3.085,9.968,9.968,0,0,0-1.623-4.034c-.908-1.413-1.917-2.762-2.872-4.147a.429.429,0,0,1-.047-.379c.585-.816,1.21-1.614,1.788-2.42a10.03,10.03,0,0,0,2.163-4.437,2.4,2.4,0,0,0-.735-1.826,5.467,5.467,0,0,0-3.734-.53,5.748,5.748,0,0,0-3.664,2.328,12.639,12.639,0,0,0-2.134,4.073,9.009,9.009,0,0,0-.454,4.272.854.854,0,0,1-.078.566,36.184,36.184,0,0,1-3.992,4.713c-.364.363-.693.764-1.025,1.134l-.538-.323c-.144.281-.246.518-.379.736a4.555,4.555,0,0,1-.715,1.056c-1.186,1.05-2.407,2.06-3.63,3.067a5.067,5.067,0,0,1-3.554,1.011,1,1,0,0,1-.991-.857,2.78,2.78,0,0,1,.16-1c.672-1.737,1.4-3.452,2.041-5.2a11.553,11.553,0,0,0,.921-4.592,3.362,3.362,0,0,0-.9-2.209,5.217,5.217,0,0,0-3.688-1.464,20.348,20.348,0,0,0-3.121.078,8.836,8.836,0,0,0-4.222,1.5c-.163.109-.336.2-.593.354.26-.617.471-1.123.7-1.666h-6.107c-.1.186-.195.36-.276.538q-1.3,2.949-2.6,5.9c-.672,1.517-1.353,3.029-2.028,4.544-.762,1.709-1.518,3.421-2.286,5.124a1.054,1.054,0,0,1-.382.428,6.715,6.715,0,0,1-2.631.968c-.885.134-1.654-.2-1.193-1.42.182-.479.367-.956.573-1.424q1.21-2.743,2.42-5.481c1.015-2.3,2.017-4.605,3.054-6.894.184-.4.106-.55-.257-.745-1.716-.916-3.415-1.862-5.12-2.8-.612-.335-1.225-.663-1.869-1.01-.444,1.006-.851,1.928-1.261,2.852q-1.15,2.59-2.3,5.178l-2.59,5.822c-.5,1.132-1,2.264-1.518,3.393s-1.023,2.263-1.577,3.374a2.174,2.174,0,0,1-1.3,1.182c-.793.233-1.191.024-1.22-.891a1.934,1.934,0,0,1,.134-.753c.475-1.177.956-2.35,1.466-3.512q1.71-3.9,3.452-7.788c.816-1.826,1.649-3.644,2.47-5.469.165-.364.309-.738.479-1.144H98.647c-.23,0-.312.1-.4.289-1.2,2.731-2.42,5.451-3.6,8.186C93.614,39,92.62,41.4,91.6,43.8a.861.861,0,0,1-.294.352,8.58,8.58,0,0,1-3.512,1.506c-.948.143-1.712-.156-1.284-1.447a11.618,11.618,0,0,1,.469-1.1c1.076-2.4,2.194-4.776,3.227-7.191a10.706,10.706,0,0,0,.878-6.09,3.631,3.631,0,0,0-2.935-3.266,10.65,10.65,0,0,0-3.812,0,8.81,8.81,0,0,0-4.718,2.071.893.893,0,0,1-1.26.134c-1.585-.887-3.208-1.708-4.806-2.572-.582-.316-.593-.327-.861.278q-2,4.526-4.012,9.063c-1.2,2.72-2.4,5.439-3.573,8.169a1.823,1.823,0,0,1-.912.984c-.3.144-.581.312-.883.437a5.67,5.67,0,0,1-2.321.55.807.807,0,0,1-.8-1.105c.077-.2.1-.415.187-.609.6-1.358,1.2-2.712,1.8-4.068q1.37-3.093,2.736-6.173c.549-1.238,1.1-2.48,1.661-3.765L59.248,25.9c-.078.144-.134.227-.171.316-.734,1.642-1.46,3.286-2.2,4.927-.941,2.084-1.882,4.16-2.824,6.246-1.088,2.42-2.151,4.851-3.253,7.272a5.9,5.9,0,0,0-.62,3.863,4.057,4.057,0,0,0,2.447,3.052,5.34,5.34,0,0,0,2.494.222,17.048,17.048,0,0,0,3.937-.765c1.085-.36,2.151-.788,3.237-1.193L61.43,51.8c.051.027.074.05.1.05,3.141,0,6.282.009,9.423,0,.116,0,.281-.16.339-.285.531-1.158,1.042-2.325,1.56-3.5q1.246-2.816,2.492-5.631.952-2.151,1.909-4.3c.854-1.921,1.7-3.848,2.57-5.763A2.127,2.127,0,0,1,81.4,31.069a1.21,1.21,0,0,1,1.162.21c.307.308.155.717-.009,1.085-.653,1.46-1.295,2.925-1.947,4.385-.96,2.151-1.938,4.292-2.884,6.454-.492,1.12-.979,2.247-1.385,3.4a3.661,3.661,0,0,0,.151,3.075,4.35,4.35,0,0,0,3.781,2.151,11.526,11.526,0,0,0,2.867-.254,22.3,22.3,0,0,0,6.817-2.555c.378-.215.77-.4,1.166-.609a4.089,4.089,0,0,0,2.754,2.918,12.06,12.06,0,0,0,4.4.614,7.086,7.086,0,0,0,3.219-.776c.679-.348,1.307-.792,1.951-1.19a1.974,1.974,0,0,0,1.944,1.778,8.624,8.624,0,0,0,1.491.007,14.541,14.541,0,0,0,4.589-.941c.752-.269,1.5-.555,2.3-.851-1.858,4.18-3.7,8.321-5.563,12.505h9.564q2.505-5.63,5-11.245a6.511,6.511,0,0,0,4.424.311,13.386,13.386,0,0,0,6.185-3.462c.5-.468.96-.982,1.439-1.479a6.8,6.8,0,0,1,.394.639,1.614,1.614,0,0,1,.195.62c.009.4-.046.807-.074,1.2-.039.569-.077,1.139-.122,1.814,3.362-1.419,6.636-2.748,9.317-5.349.022.432.008.784.062,1.128a5.2,5.2,0,0,0,3.462,4.326,13.85,13.85,0,0,0,6.384.775c1.281-.125,2.568-.241,3.839-.444a23.3,23.3,0,0,0,5.9-1.853,22.32,22.32,0,0,0,4.95-2.985,18.45,18.45,0,0,0,3.847-4.186.519.519,0,0,0,.013-.428Zm-38.759-9.614c-.4.988-.846,1.963-1.283,2.939q-1.458,3.265-2.93,6.523c-.672,1.479-1.315,2.977-2.036,4.437a3.093,3.093,0,0,1-1.7,1.736c-.733.247-1.21-.079-1.236-.838a15.329,15.329,0,0,1,.563-1.87c1.128-2.555,2.3-5.1,3.453-7.65.777-1.714,1.538-3.437,2.334-5.142a1.915,1.915,0,0,1,2.383-1.076.639.639,0,0,1,.454.94Zm19.954,11.47a4.421,4.421,0,0,1-3.4,2.22,1.536,1.536,0,0,0-.167.035c-.871.186-1.21-.128-1.388-.816a4.655,4.655,0,0,1,.159-2.88,5.474,5.474,0,0,1,1.076-1.39q1.479-1.722,2.986-3.422c.441-.5.906-.975,1.378-1.479a4.455,4.455,0,0,1,.74,2.555,8.549,8.549,0,0,1-1.39,5.178Zm4.02-17.331a3.1,3.1,0,0,1,.269-1.822,1.21,1.21,0,0,1,1.226-.526c.225.055.34.167.163.4-.269.351-.526.715-.807,1.054-.257.289-.537.558-.851.89Z" transform="translate(-17.759 -8.654)" fill="#ed293d" fill-rule="evenodd"/>
      <path id="Path_63" data-name="Path 63" d="M60.905,35.91c.807-1.671,1.56-3.37,2.33-5.06q1.245-2.73,2.477-5.463,1.42-3.165,2.824-6.337a5.436,5.436,0,0,0,.714-3.107,3.376,3.376,0,0,0-1.424-2.311,11.658,11.658,0,0,0-6.309-1.905,19.126,19.126,0,0,0-5.079.333,9.958,9.958,0,0,0-4.018,1.659,14.306,14.306,0,0,0-1.355-.869,11.533,11.533,0,0,0-5.025-.941c-3.59-.074-7.183-.031-10.775-.016a1.514,1.514,0,0,0-1.614,1.39,8,8,0,0,0,0,1.23,1.3,1.3,0,0,0,1.359,1.21c1.541,0,3.083.009,4.624,0a2.9,2.9,0,0,1,1.722.538,1.509,1.509,0,0,1,.6,2.03c-.258.59-.514,1.182-.775,1.77q-1.324,2.989-2.654,5.973-1.162,2.607-2.329,5.213-1.314,2.946-2.622,5.894-1.16,2.606-2.317,5.217l-2.619,5.894c-.978,2.192-1.96,4.382-2.977,6.649h.551c2.793,0,5.586-.042,8.376.026.909.022,1.424-.164,1.748-1.085.465-1.314,1.1-2.571,1.67-3.847s1.154-2.555,1.748-3.819a.5.5,0,0,1,.325-.25,8.185,8.185,0,0,1,1.21-.093,28.955,28.955,0,0,0,5.175-.524,25.122,25.122,0,0,0,6.589-2.084A17.553,17.553,0,0,0,58.677,39.1,14.135,14.135,0,0,0,60.905,35.91Zm-6.231-7.491q-.988,2.211-1.978,4.42c-.619,1.38-1.233,2.761-1.86,4.136a6.529,6.529,0,0,1-1.917,2.207,23.483,23.483,0,0,1-5.389,3.141c-.737.339-1.494.635-2.244.941a1.041,1.041,0,0,1-.25.022c.375-.861.726-1.678,1.086-2.492q1.4-3.15,2.8-6.3c.788-1.76,1.592-3.515,2.379-5.276.874-1.951,1.733-3.909,2.6-5.861.709-1.588,1.394-3.188,2.151-4.753a4.665,4.665,0,0,1,3.111-2.731,3.862,3.862,0,0,1,3.153.278,2.091,2.091,0,0,1,.757,1.927,20.267,20.267,0,0,1-1.658,4.156c-.879,2.073-1.829,4.119-2.748,6.177Z" transform="translate(-25.665 -11.681)" fill="#ed293d" fill-rule="evenodd"/>
      <path id="Path_64" data-name="Path 64" d="M59.445,23.226a5.567,5.567,0,0,0,2.941.787,9.556,9.556,0,0,0,4.245-1.056,5.647,5.647,0,0,0,2.742-2.676,2.263,2.263,0,0,0-.89-3.078,6.242,6.242,0,0,0-4.254-.563,10.009,10.009,0,0,0-3.181,1.2,4.786,4.786,0,0,0-2.532,2.984A2.151,2.151,0,0,0,59.445,23.226Z" transform="translate(-14.527 -10.024)" fill="#ed293d" fill-rule="evenodd"/>
      <path id="Path_65" data-name="Path 65" d="M120.607,26.445a.769.769,0,0,1,.5.609c.411,1.93.831,3.858,1.259,5.83.058-.082.1-.113.1-.152.39-1.732.762-3.469,1.178-5.2.083-.35-.047-.816.446-1.017.9-.364,1.784-.749,2.674-1.129.523-.226,1.045-.46,1.65-.727-1.467-.628-2.824-1.234-4.2-1.775a.76.76,0,0,1-.5-.658l-1.259-5.715h-.09c-.043.173-.091.347-.134.52q-.61,2.735-1.228,5.467a.452.452,0,0,1-.2.278c-.4.19-.814.354-1.221.527l-3.15,1.345a3.66,3.66,0,0,0,.383.222C118.083,25.393,119.345,25.923,120.607,26.445Z" transform="translate(5.107 -10.015)" fill="#ed293d" fill-rule="evenodd"/>
    </g>
    <g id="Group_26" data-name="Group 26" transform="translate(34.582 61.303)">
      <path id="Path_66" data-name="Path 66" d="M61.106,53.9h-1.47V46.152h4.345a1.825,1.825,0,0,1,1.853,1.32,2.112,2.112,0,0,1-1.748,2.918A16.5,16.5,0,0,1,66.6,53.918c-.582,0-1.084.017-1.583-.012a.594.594,0,0,1-.346-.269c-.6-.85-1.14-1.748-1.783-2.555a1.8,1.8,0,0,0-1.78-.454Zm0-4.558c.9-.043,1.748-.066,2.594-.134a.784.784,0,0,0,.8-.83.754.754,0,0,0-.672-.9c-.893-.106-1.8-.1-2.716-.143Z" transform="translate(-14.677 -45.885)" fill="#fff" fill-rule="evenodd"/>
      <path id="Path_67" data-name="Path 67" d="M60.3,48.365l-1.406.28a4.743,4.743,0,0,0-.333-.567,2.084,2.084,0,0,0-2.42-.639,2.042,2.042,0,0,0-1.517,1.721,3.618,3.618,0,0,0,.3,2.5,2.359,2.359,0,0,0,2.853.953c.067-.02.134-.035.2-.058.909-.3,1-.438.9-1.464H57.02V49.811H60.4c0,.991,0,1.975-.009,2.958a.448.448,0,0,1-.206.3,5.142,5.142,0,0,1-5.28.456,3.351,3.351,0,0,1-1.717-2.434,4.4,4.4,0,0,1,.686-3.683,3.336,3.336,0,0,1,2.192-1.3,4.917,4.917,0,0,1,2.341.112A2.689,2.689,0,0,1,60.3,48.365Z" transform="translate(-16.95 -45.931)" fill="#fff" fill-rule="evenodd"/>
      <path id="Path_68" data-name="Path 68" d="M67.748,46.1h1.424v6.516h4.011v1.3H67.748Z" transform="translate(-11.881 -45.902)" fill="#fff" fill-rule="evenodd"/>
      <path id="Path_69" data-name="Path 69" d="M78.115,53.911H72.679v-7.8h1.427v6.5h4.01Z" transform="translate(-10.182 -45.898)" fill="#fff" fill-rule="evenodd"/>
      <path id="Path_70" data-name="Path 70" d="M66.9,53.907H65.469V46.116H66.9Z" transform="translate(-12.667 -45.896)" fill="#fff" fill-rule="evenodd"/>
      <path id="Path_71" data-name="Path 71" d="M51.806,52.835a4.878,4.878,0,0,1-1-.84,5.888,5.888,0,0,0,.495-1.532l.066-.34-.343-.054-.96-.152-.332-.051-.052.331a4.415,4.415,0,0,1-.094.453l-.795-.906a2.278,2.278,0,0,0,1.136-1.975,1.842,1.842,0,0,0-.663-1.331,2.017,2.017,0,0,0-1.361-.484h-.148a2.192,2.192,0,0,0-1.521.672,1.882,1.882,0,0,0-.553,1.444,1.981,1.981,0,0,0,.245.826,3.639,3.639,0,0,0,.488.672A3.684,3.684,0,0,0,45.4,50.5a2.286,2.286,0,0,0-.438,1.479,2.438,2.438,0,0,0,.713,1.591,2.574,2.574,0,0,0,1.92.78h.195A3,3,0,0,0,49.069,54a3.305,3.305,0,0,0,.8-.612,5.235,5.235,0,0,0,1.021.789l.255.145.178-.234.576-.758.219-.292Zm-2.99-.6a1.748,1.748,0,0,1-.428.39,1.374,1.374,0,0,1-.672.249h-.075a.839.839,0,0,1-.7-.312,1.285,1.285,0,0,1-.336-.725.988.988,0,0,1,.171-.57,2.3,2.3,0,0,1,.619-.6ZM48.162,47.5a.511.511,0,0,1,.164.376.7.7,0,0,1-.1.4,1.507,1.507,0,0,1-.4.387l-.233-.242a1.657,1.657,0,0,1-.235-.315.538.538,0,0,1-.069-.219.45.45,0,0,1,.125-.351.526.526,0,0,1,.376-.165H47.8A.492.492,0,0,1,48.162,47.5ZM47.828,47.045Z" transform="translate(-19.736 -45.953)" fill="#fff"/>
      <path id="Path_72" data-name="Path 72" d="M26.2,53.881V46.153h5.3V47.46H27.761v1.83h3.227V50.6H27.761v3.284Z" transform="translate(-26.2 -45.883)" fill="#fff"/>
      <path id="Path_73" data-name="Path 73" d="M31.093,46.153h1.561v4.186a8.659,8.659,0,0,0,.058,1.292,1.245,1.245,0,0,0,.477.761,1.654,1.654,0,0,0,1.03.288,1.568,1.568,0,0,0,1-.269,1.066,1.066,0,0,0,.4-.672,8.69,8.69,0,0,0,.069-1.314V46.153h1.561v4.059a10.4,10.4,0,0,1-.126,1.966,2.19,2.19,0,0,1-.467.971,2.369,2.369,0,0,1-.91.631,3.959,3.959,0,0,1-1.479.234,4.3,4.3,0,0,1-1.679-.255,2.42,2.42,0,0,1-.9-.664,2.122,2.122,0,0,1-.437-.857,9.375,9.375,0,0,1-.153-1.962Z" transform="translate(-24.514 -45.883)" fill="#fff"/>
      <path id="Path_74" data-name="Path 74" d="M36.912,53.881V46.153H38.43l3.164,5.161V46.153h1.45v7.728H41.478l-3.117-5.04v5.04Z" transform="translate(-22.508 -45.883)" fill="#fff"/>
    </g>
  </g>
</svg>
